PathFileType   4   (X/Y/Z)
DataRate  CameraRate  NumFrames  NumMarkers  Units  OrigDataRate  OrigDataStartFrame  OrigNumFrames  
  120.0      120.0        10         37         mm      120.0          141        160
Frame#      Time                    midhip                           hip_r                           hip_l                          knee_r                          knee_l                         ankle_r                         ankle_l                         midasis                          asis_r                          asis_l                          psis_r                          psis_l                    epicondLat_r                    epicondLat_l                    epicondMed_r                    epicondMed_l                  malleolusLat_r                  malleolusLat_l                 malleolusMedv_r                 malleolusMedv_l                            neck                   subclavicle_r                   subclavicle_l                    sternalnotch                  xyphoidprocess                     thighwand_r                     thighwand_l                     upperleg1_r                     upperleg1_l                     upperleg2_r                     upperleg2_l                     shankwand_r                     shankwand_l                     lowerleg1_r                     lowerleg1_l                           toe_r                           toe_l            
              X1          Y1          Z1          X2          Y2          Z2          X3          Y3          Z3          X4          Y4          Z4          X5          Y5          Z5          X6          Y6          Z6          X7          Y7          Z7          X8          Y8          Z8          X9          Y9          Z9          X10          Y10          Z10          X11          Y11          Z11          X12          Y12          Z12          X13          Y13          Z13          X14          Y14          Z14          X15          Y15          Z15          X16          Y16          Z16          X17          Y17          Z17          X18          Y18          Z18          X19          Y19          Z19          X20          Y20          Z20          X21          Y21          Z21          X22          Y22          Z22          X23          Y23          Z23          X24          Y24          Z24          X25          Y25          Z25          X26          Y26          Z26          X27          Y27          Z27          X28          Y28          Z28          X29          Y29          Z29          X30          Y30          Z30          X31          Y31          Z31          X32          Y32          Z32          X33          Y33          Z33          X34          Y34          Z34          X35          Y35          Z35          X36          Y36          Z36          X37          Y37          Z37          

	141	1.26667	1493.394	769.762	-223.485	1487.398	765.913	-166.502	1499.389	773.611	-280.469	1394.141	429.657	-151.664	1593.065	429.239	-299.686	1350.544	70.046	-161.074	1550.887	82.564	-294.516	1531.782	840.158	-215.430	1535.599	838.158	-104.246	1527.966	842.158	-326.614	1358.580	876.607	-182.436	1357.406	874.867	-236.442	1425.099	420.979	-92.029	1603.766	428.124	-357.523	1406.993	423.645	-208.957	1624.940	430.420	-239.772	1345.980	69.702	-123.855	1539.040	83.893	-329.015	1349.141	67.693	-194.642	1551.326	82.752	-260.781	1438.680	1269.529	-205.925	1539.366	1183.322	-166.336	1533.606	1188.869	-270.345	1533.476	1186.389	-221.245	1527.214	1084.677	-228.846	1562.012	541.633	-123.897	1652.407	606.069	-377.981	1515.830	588.721	-87.966	1619.806	640.673	-311.825	1496.654	535.351	-91.462	1635.580	585.146	-304.034	1490.790	166.596	-135.732	1542.351	188.376	-417.783	1411.204	164.559	-149.671	1552.248	176.935	-339.523	1431.712	47.662	-150.666	1635.610	58.618	-301.304
	142	1.27500	1504.008	768.423	-223.608	1497.912	764.610	-166.633	1510.103	772.237	-280.584	1397.920	430.458	-152.076	1605.940	428.478	-299.290	1350.876	70.647	-161.418	1583.846	80.057	-297.952	1542.430	838.813	-215.551	1546.078	836.875	-104.370	1538.783	840.751	-326.732	1369.103	875.480	-183.019	1368.243	873.726	-237.200	1430.006	420.888	-92.340	1618.037	428.466	-357.394	1410.780	423.620	-207.951	1636.476	428.288	-241.131	1346.209	70.387	-124.211	1572.386	81.043	-332.592	1349.437	68.628	-195.020	1584.454	79.892	-264.328	1450.141	1268.455	-206.794	1550.437	1181.669	-166.966	1544.498	1187.609	-271.399	1544.454	1184.956	-222.080	1537.690	1083.301	-230.002	1568.919	539.636	-123.384	1664.016	605.444	-376.820	1523.293	587.193	-87.781	1630.346	639.290	-310.679	1502.686	533.686	-91.014	1646.468	583.931	-303.408	1492.240	165.416	-135.776	1571.161	186.286	-420.398	1412.898	164.510	-149.707	1581.314	174.862	-342.170	1431.843	47.750	-150.846	1670.348	59.528	-304.988
	143	1.28333	1514.908	766.947	-223.847	1508.611	763.184	-166.890	1521.204	770.709	-280.804	1402.180	431.320	-152.438	1616.637	427.469	-298.988	1351.254	71.343	-161.813	1616.381	78.299	-301.482	1553.238	837.339	-215.680	1556.607	835.510	-104.501	1549.869	839.169	-326.859	1379.654	874.241	-183.660	1379.286	872.474	-238.009	1435.143	420.754	-92.649	1631.984	428.506	-357.352	1415.245	424.175	-207.832	1645.260	425.831	-241.679	1346.486	71.165	-124.618	1605.315	78.996	-336.257	1349.719	69.473	-195.424	1617.021	77.578	-267.941	1461.458	1267.424	-207.289	1561.620	1180.504	-167.811	1555.665	1186.043	-272.642	1555.629	1183.586	-223.126	1548.621	1081.915	-230.624	1576.070	537.671	-122.917	1675.367	604.370	-375.398	1530.616	585.694	-87.301	1640.452	637.746	-309.061	1508.824	532.283	-90.608	1656.489	581.954	-302.083	1493.796	164.224	-135.854	1599.546	184.832	-423.109	1414.320	164.477	-149.913	1609.846	173.352	-344.589	1432.011	47.843	-151.065	1704.453	61.137	-308.675
	144	1.29167	1525.905	765.353	-224.102	1519.386	761.660	-167.166	1532.424	769.046	-281.039	1407.794	432.195	-152.724	1627.286	426.114	-298.817	1351.716	72.164	-162.233	1648.362	77.250	-305.031	1564.192	835.752	-215.808	1567.195	834.084	-104.639	1561.189	837.420	-326.978	1390.255	872.930	-184.369	1390.510	871.127	-238.873	1440.487	420.575	-92.938	1645.607	428.256	-357.437	1421.330	424.729	-208.365	1653.570	423.498	-241.627	1346.853	72.066	-125.049	1637.664	77.702	-339.925	1350.113	70.415	-195.855	1649.084	76.556	-271.569	1472.624	1266.097	-207.915	1572.986	1179.299	-168.829	1567.082	1184.468	-273.745	1567.022	1182.182	-224.189	1560.119	1080.479	-231.334	1583.547	535.737	-122.501	1686.549	602.943	-373.774	1538.684	584.702	-87.212	1650.156	636.112	-307.537	1515.800	531.131	-90.644	1666.131	579.854	-300.615	1495.489	163.026	-135.951	1627.283	183.943	-425.866	1415.874	164.546	-150.191	1637.689	172.495	-347.683	1432.219	47.951	-151.312	1737.772	63.428	-312.227
	145	1.30000	1536.967	763.662	-224.272	1530.215	760.083	-167.355	1543.718	767.242	-281.189	1414.036	433.142	-152.971	1639.441	423.025	-298.856	1352.296	73.130	-162.648	1679.631	76.863	-308.512	1575.268	834.062	-215.927	1577.847	832.610	-104.778	1572.690	835.514	-327.077	1400.934	871.581	-185.167	1401.907	869.691	-239.780	1446.030	420.353	-93.202	1658.905	427.740	-357.671	1428.484	425.028	-209.484	1662.699	421.467	-239.224	1347.345	73.112	-125.476	1669.255	77.099	-343.505	1351.245	70.720	-196.257	1680.672	76.177	-275.152	1483.930	1264.334	-209.153	1584.221	1177.507	-169.827	1578.249	1182.811	-274.428	1578.221	1180.464	-225.027	1571.276	1078.773	-232.310	1591.370	533.827	-122.115	1697.677	601.272	-372.008	1547.229	584.095	-87.647	1659.774	633.559	-306.568	1523.081	529.959	-91.163	1675.831	577.586	-298.918	1497.328	161.829	-136.049	1654.180	183.531	-428.616	1417.923	164.597	-151.120	1665.012	171.982	-350.773	1432.476	48.088	-151.568	1770.146	66.376	-315.527
	146	1.30833	1548.072	761.907	-224.326	1541.081	758.496	-167.428	1555.063	765.319	-281.225	1420.123	434.320	-153.212	1650.214	420.000	-299.132	1353.013	74.244	-163.032	1710.005	77.076	-311.846	1586.446	832.283	-216.030	1588.569	831.102	-104.906	1584.322	833.464	-327.153	1411.740	870.199	-186.077	1413.356	868.183	-240.749	1451.776	420.095	-93.448	1671.884	426.981	-358.056	1435.530	425.560	-210.773	1670.417	418.723	-237.281	1347.979	74.310	-125.872	1699.896	77.112	-346.918	1352.744	70.730	-196.578	1711.360	76.348	-278.573	1495.318	1262.362	-210.579	1595.416	1175.699	-170.746	1589.508	1180.701	-275.564	1589.450	1178.497	-226.057	1582.452	1076.789	-233.039	1599.514	531.924	-121.715	1708.876	599.469	-370.165	1555.847	583.107	-88.024	1669.780	630.517	-305.124	1530.462	528.899	-91.671	1685.396	574.816	-297.014	1499.309	160.640	-136.128	1680.073	183.503	-431.306	1420.256	164.566	-152.312	1691.430	171.781	-353.678	1432.787	48.270	-151.808	1801.402	69.929	-318.503
	147	1.31667	1559.228	760.086	-224.318	1551.985	756.871	-167.439	1566.472	763.300	-281.196	1426.902	434.960	-153.481	1660.139	417.323	-299.604	1353.858	75.492	-163.364	1739.284	77.806	-314.973	1597.705	830.432	-216.115	1599.370	829.572	-105.018	1596.040	831.293	-327.211	1422.689	868.787	-187.111	1424.790	866.613	-241.791	1457.743	419.808	-93.685	1684.572	426.009	-358.579	1443.208	426.101	-212.420	1677.604	416.152	-235.156	1348.749	75.648	-126.214	1729.383	77.645	-350.104	1353.817	71.305	-196.830	1740.453	77.409	-281.708	1506.453	1260.505	-211.578	1606.834	1174.206	-171.727	1600.832	1178.652	-276.499	1600.818	1176.705	-227.015	1594.033	1074.947	-233.466	1607.921	530.003	-121.253	1720.245	597.636	-368.316	1564.336	581.519	-87.955	1680.174	627.808	-303.364	1538.284	527.914	-91.989	1695.141	572.003	-294.839	1501.419	159.461	-136.182	1704.823	183.766	-433.886	1422.382	164.403	-152.906	1716.265	172.171	-356.663	1433.151	48.506	-152.008	1831.357	73.991	-321.127
	148	1.32500	1570.444	758.194	-224.272	1562.946	755.194	-167.415	1577.942	761.195	-281.129	1434.433	434.944	-153.763	1672.273	414.411	-300.185	1354.813	76.850	-163.620	1767.248	78.939	-317.846	1609.032	828.532	-216.201	1610.245	828.026	-105.129	1607.819	829.039	-327.274	1433.765	867.334	-188.265	1436.046	865.004	-242.945	1463.965	419.493	-93.920	1697.043	424.871	-359.219	1451.518	426.010	-213.347	1686.793	413.670	-233.313	1349.641	77.107	-126.479	1757.503	78.580	-353.019	1354.582	72.547	-197.047	1767.986	78.905	-284.552	1517.414	1258.839	-212.540	1618.222	1172.542	-173.244	1611.693	1176.836	-277.275	1611.927	1174.960	-228.145	1605.189	1073.189	-234.446	1616.527	528.051	-120.688	1731.851	595.852	-366.537	1572.531	579.877	-87.574	1690.520	625.048	-302.070	1546.458	527.303	-91.850	1705.342	569.451	-293.088	1503.647	158.293	-136.210	1728.320	184.227	-436.314	1424.458	164.393	-153.007	1739.686	172.827	-359.449	1433.567	48.802	-152.135	1859.819	78.406	-323.412
	149	1.33333	1581.752	756.261	-224.213	1574.016	753.485	-167.377	1589.488	759.037	-281.050	1442.172	434.918	-154.028	1685.188	413.591	-300.754	1355.855	78.307	-163.766	1793.671	80.329	-320.422	1620.409	826.609	-216.322	1621.185	826.469	-105.267	1619.634	826.749	-327.376	1444.963	865.811	-189.554	1447.251	863.331	-244.183	1470.488	419.149	-94.144	1709.407	423.622	-359.945	1460.088	425.376	-213.810	1697.206	409.527	-237.322	1350.643	78.674	-126.632	1784.038	79.769	-355.624	1355.315	74.301	-197.213	1794.189	80.525	-287.134	1528.595	1257.058	-214.249	1629.230	1170.373	-174.661	1622.760	1174.616	-278.628	1622.966	1172.773	-229.531	1615.911	1071.020	-235.767	1625.284	526.068	-120.001	1743.734	594.173	-364.909	1581.172	578.562	-87.511	1700.969	622.509	-300.815	1554.761	526.492	-91.783	1715.922	566.853	-292.943	1505.993	157.135	-136.225	1750.491	184.784	-438.556	1426.743	164.731	-152.897	1762.028	173.699	-361.775	1434.042	49.166	-152.159	1886.597	82.956	-325.404
	150	1.34167	1593.140	754.328	-224.210	1585.194	751.770	-167.393	1601.086	756.886	-281.028	1450.581	434.602	-154.256	1698.212	413.568	-301.456	1356.963	79.870	-163.769	1818.341	81.786	-322.665	1631.822	824.689	-216.509	1632.177	824.905	-105.467	1631.466	824.474	-327.552	1456.284	864.196	-190.981	1458.470	861.590	-245.503	1477.364	418.769	-94.341	1721.797	422.332	-360.722	1469.583	424.404	-214.989	1709.042	405.781	-241.651	1351.751	80.352	-126.636	1808.784	81.031	-357.884	1356.151	76.179	-197.243	1818.732	82.224	-289.405	1539.741	1255.029	-216.116	1640.290	1168.332	-175.765	1634.310	1172.235	-279.933	1634.285	1170.552	-230.751	1627.228	1068.781	-236.681	1634.180	524.067	-119.207	1755.914	592.640	-363.513	1590.524	577.237	-87.782	1712.099	620.503	-299.289	1563.433	525.033	-92.181	1727.339	564.599	-292.798	1508.468	155.987	-136.240	1771.286	185.321	-440.583	1429.249	165.145	-152.733	1783.037	174.871	-363.650	1434.580	49.603	-152.063	1911.510	87.363	-327.167
